<svg width="91" height="18" viewBox="0 0 91 18" fill="none" xmlns="http://www.w3.org/2000/svg">
<path fill-rule="evenodd" clip-rule="evenodd" d="M32.4546 12.52C32.4546 15.627 35.2207 17.5342 38.2413 17.5342C40.1331 17.5342 42.1044 16.9036 43.4239 15.104L43.4716 15.1194C43.4716 15.7654 43.4716 16.5652 43.5828 17.2112H48.3203C48.209 16.3191 48.1772 15.4116 48.1772 14.5042V6.78296C48.1772 2.26099 44.9977 0 40.6736 0C37.0331 0 33.4561 1.72266 32.8679 5.3064L37.3192 6.27539C37.7008 4.86035 38.8931 3.98364 40.4351 3.98364C42.2793 3.98364 43.1854 4.9834 43.1854 6.07544C43.1854 6.7522 42.7721 7.229 41.8182 7.229H40.1172C36.731 7.229 32.4546 8.36719 32.4546 12.3816V12.52ZM31.2505 0.384521V5.19873C30.5828 5.07568 29.8515 5.07568 29.6289 5.07568C27.1966 5.07568 25.4955 6.72144 25.4955 9.84375V17.2112H20.5196V0.399902H25.3366V2.84546H25.3843C26.3381 0.922852 28.0868 0.215332 29.8833 0.215332C30.2648 0.215332 30.8848 0.292236 31.2505 0.384521ZM5.07131 0.399902V9.76685C5.07131 11.6433 5.97747 12.9968 8.09184 12.9968C10.2221 12.9968 11.2078 11.5049 11.2078 9.76685V0.399902H16.2791V17.2112H11.2713V15.1194H11.2237C9.51096 17.5517 6.92858 17.5499 6.39295 17.5496L6.37491 17.5496C2.05078 17.5496 0 14.4119 0 10.9512V0.399902H5.07131ZM39.7039 13.9504C41.9295 13.9504 43.1536 12.3816 43.1536 10.7051V10.3206H40.1172C39.068 10.3206 37.5895 10.9204 37.5895 12.2432C37.5895 13.4429 38.6228 13.9504 39.7039 13.9504ZM63.4348 7.875V17.2112H68.5061V6.7522C68.5061 3.2915 66.6302 0.0615234 62.2107 0.0615234C61.543 0.0615234 58.6337 0.322998 57.2983 2.58398H57.2506V0.399902H52.227V17.2112H57.2824V7.875C57.2824 6.15234 58.2681 4.61426 60.4142 4.61426C62.5127 4.61426 63.4348 5.99854 63.4348 7.875ZM71.4907 8.84399C71.4907 3.81445 75.7672 0 81.0134 0C86.2595 0 90.4724 3.73755 90.4724 8.75171C90.4724 13.812 86.1959 17.5803 80.9498 17.5803C75.7036 17.5803 71.4907 13.8889 71.4907 8.84399ZM80.9816 13.0737C78.6128 13.0737 76.6892 11.3357 76.6892 8.78247C76.6892 6.24463 78.5969 4.49121 80.9657 4.49121C83.3503 4.49121 85.2739 6.24463 85.2739 8.78247C85.2739 11.3357 83.3662 13.0737 80.9816 13.0737Z" fill="white"/>
</svg>
